<svg width="2040" height="500" viewBox="0 0 2040 500" fill="none" xmlns="http://www.w3.org/2000/svg">
<rect width="2040" height="500" fill="white"/>
<path d="M571.687 189.439C580.087 189.439 587.554 191.305 594.087 195.039C600.62 198.639 605.687 204.039 609.287 211.239C613.02 218.305 614.887 226.839 614.887 236.839V301.839H586.887V240.639C586.887 231.839 584.687 225.105 580.287 220.439C575.887 215.639 569.887 213.239 562.287 213.239C554.554 213.239 548.42 215.639 543.887 220.439C539.487 225.105 537.287 231.839 537.287 240.639V301.839H509.287V153.839H537.287V204.839C540.887 200.039 545.687 196.305 551.687 193.639C557.687 190.839 564.354 189.439 571.687 189.439ZM744.514 244.039C744.514 248.039 744.247 251.639 743.714 254.839H662.714C663.38 262.839 666.18 269.105 671.114 273.639C676.047 278.172 682.114 280.439 689.314 280.439C699.714 280.439 707.114 275.972 711.514 267.039H741.714C738.514 277.705 732.38 286.505 723.314 293.439C714.247 300.239 703.114 303.639 689.914 303.639C679.247 303.639 669.647 301.305 661.114 296.639C652.714 291.839 646.114 285.105 641.314 276.439C636.647 267.772 634.314 257.772 634.314 246.439C634.314 234.972 636.647 224.905 641.314 216.239C645.98 207.572 652.514 200.905 660.914 196.239C669.314 191.572 678.98 189.239 689.914 189.239C700.447 189.239 709.847 191.505 718.114 196.039C726.514 200.572 732.98 207.039 737.514 215.439C742.18 223.705 744.514 233.239 744.514 244.039ZM715.514 236.039C715.38 228.839 712.78 223.105 707.714 218.839C702.647 214.439 696.447 212.239 689.114 212.239C682.18 212.239 676.314 214.372 671.514 218.639C666.847 222.772 663.98 228.572 662.914 236.039H715.514ZM792.951 208.239C796.551 202.372 801.218 197.772 806.951 194.439C812.818 191.105 819.484 189.439 826.951 189.439V218.839H819.551C810.751 218.839 804.084 220.905 799.551 225.039C795.151 229.172 792.951 236.372 792.951 246.639V301.839H764.951V191.039H792.951V208.239ZM895.01 303.639C884.344 303.639 874.744 301.305 866.21 296.639C857.677 291.839 850.944 285.105 846.01 276.439C841.21 267.772 838.81 257.772 838.81 246.439C838.81 235.105 841.277 225.105 846.21 216.439C851.277 207.772 858.144 201.105 866.81 196.439C875.477 191.639 885.144 189.239 895.81 189.239C906.477 189.239 916.144 191.639 924.81 196.439C933.477 201.105 940.277 207.772 945.21 216.439C950.277 225.105 952.81 235.105 952.81 246.439C952.81 257.772 950.21 267.772 945.01 276.439C939.944 285.105 933.01 291.839 924.21 296.639C915.544 301.305 905.81 303.639 895.01 303.639ZM895.01 279.239C900.077 279.239 904.81 278.039 909.21 275.639C913.744 273.105 917.344 269.372 920.01 264.439C922.677 259.505 924.01 253.505 924.01 246.439C924.01 235.905 921.21 227.839 915.61 222.239C910.144 216.505 903.41 213.639 895.41 213.639C887.41 213.639 880.677 216.505 875.21 222.239C869.877 227.839 867.21 235.905 867.21 246.439C867.21 256.972 869.81 265.105 875.01 270.839C880.344 276.439 887.01 279.239 895.01 279.239Z" fill="black"/>
<path d="M1068.35 162.239V184.839H1031.15V301.839H1003.15V184.839H965.949V162.239H1068.35ZM1102.98 177.839C1098.05 177.839 1093.91 176.305 1090.58 173.239C1087.38 170.039 1085.78 166.105 1085.78 161.439C1085.78 156.772 1087.38 152.905 1090.58 149.839C1093.91 146.639 1098.05 145.039 1102.98 145.039C1107.91 145.039 1111.98 146.639 1115.18 149.839C1118.51 152.905 1120.18 156.772 1120.18 161.439C1120.18 166.105 1118.51 170.039 1115.18 173.239C1111.98 176.305 1107.91 177.839 1102.98 177.839ZM1116.78 191.039V301.839H1088.78V191.039H1116.78ZM1282.04 189.439C1295.64 189.439 1306.58 193.639 1314.84 202.039C1323.24 210.305 1327.44 221.905 1327.44 236.839V301.839H1299.44V240.639C1299.44 231.972 1297.24 225.372 1292.84 220.839C1288.44 216.172 1282.44 213.839 1274.84 213.839C1267.24 213.839 1261.18 216.172 1256.64 220.839C1252.24 225.372 1250.04 231.972 1250.04 240.639V301.839H1222.04V240.639C1222.04 231.972 1219.84 225.372 1215.44 220.839C1211.04 216.172 1205.04 213.839 1197.44 213.839C1189.71 213.839 1183.58 216.172 1179.04 220.839C1174.64 225.372 1172.44 231.972 1172.44 240.639V301.839H1144.44V191.039H1172.44V204.439C1176.04 199.772 1180.64 196.105 1186.24 193.439C1191.98 190.772 1198.24 189.439 1205.04 189.439C1213.71 189.439 1221.44 191.305 1228.24 195.039C1235.04 198.639 1240.31 203.839 1244.04 210.639C1247.64 204.239 1252.84 199.105 1259.64 195.239C1266.58 191.372 1274.04 189.439 1282.04 189.439ZM1457.01 244.039C1457.01 248.039 1456.75 251.639 1456.21 254.839H1375.21C1375.88 262.839 1378.68 269.105 1383.61 273.639C1388.55 278.172 1394.61 280.439 1401.81 280.439C1412.21 280.439 1419.61 275.972 1424.01 267.039H1454.21C1451.01 277.705 1444.88 286.505 1435.81 293.439C1426.75 300.239 1415.61 303.639 1402.41 303.639C1391.75 303.639 1382.15 301.305 1373.61 296.639C1365.21 291.839 1358.61 285.105 1353.81 276.439C1349.15 267.772 1346.81 257.772 1346.81 246.439C1346.81 234.972 1349.15 224.905 1353.81 216.239C1358.48 207.572 1365.01 200.905 1373.41 196.239C1381.81 191.572 1391.48 189.239 1402.41 189.239C1412.95 189.239 1422.35 191.505 1430.61 196.039C1439.01 200.572 1445.48 207.039 1450.01 215.439C1454.68 223.705 1457.01 233.239 1457.01 244.039ZM1428.01 236.039C1427.88 228.839 1425.28 223.105 1420.21 218.839C1415.15 214.439 1408.95 212.239 1401.61 212.239C1394.68 212.239 1388.81 214.372 1384.01 218.639C1379.35 222.772 1376.48 228.572 1375.41 236.039H1428.01ZM1505.45 208.239C1509.05 202.372 1513.72 197.772 1519.45 194.439C1525.32 191.105 1531.98 189.439 1539.45 189.439V218.839H1532.05C1523.25 218.839 1516.58 220.905 1512.05 225.039C1507.65 229.172 1505.45 236.372 1505.45 246.639V301.839H1477.45V191.039H1505.45V208.239Z" fill="#27308F"/>
</svg>
